<svg version="1.1" id="Layer_1" xmlns="http://www.w3.org/2000/svg" xmlns:xlink="http://www.w3.org/1999/xlink" x="0px" y="0px"
	 viewBox="0 0 460.002 460.002" style="enable-background:new 0 0 460.002 460.002;" xml:space="preserve">
<g>
	<g>
		<path d="M427.137,0H32.865C14.743,0,0,14.743,0,32.865v408.543c0,10.253,8.341,18.594,18.594,18.594h408.543
			c18.122,0,32.865-14.743,32.865-32.865V32.865C460.002,14.743,445.259,0,427.137,0z M139.001,56.001c39.149,0,71,31.851,71,71
			s-31.851,71-71,71c-39.149,0-71-31.851-71-71C68.001,87.852,99.852,56.001,139.001,56.001z M405.24,393.215
			c-2.634,4.801-7.675,7.786-13.151,7.786H67.913c-5.477,0-10.518-2.984-13.151-7.786c-2.634-4.802-2.442-10.657,0.501-15.275
			l77.092-120.984c2.754-4.322,7.524-6.939,12.65-6.939s9.896,2.617,12.65,6.939l37.029,58.111l72.346-113.536
			c2.754-4.323,7.524-6.939,12.65-6.939c5.125,0,9.896,2.617,12.65,6.939L404.739,377.94
			C407.682,382.559,407.874,388.414,405.24,393.215z"/>
	</g>
</g>
<g>
</g>
<g>
</g>
<g>
</g>
<g>
</g>
<g>
</g>
<g>
</g>
<g>
</g>
<g>
</g>
<g>
</g>
<g>
</g>
<g>
</g>
<g>
</g>
<g>
</g>
<g>
</g>
<g>
</g>
</svg>
